<svg width="24" height="24" viewBox="0 0 24 24" fill="none" xmlns="http://www.w3.org/2000/svg">
<path d="M3.83301 1.333C3.71933 1.33412 3.6067 1.35476 3.50001 1.394V1C3.50001 0.449 3.94901 0 4.50001 0H19.167C19.718 0 20.167 0.449 20.167 1V1.333H3.83301ZM21.167 3.667H2.83301C2.28201 3.667 1.83301 4.116 1.83301 4.667V23C1.83301 23.551 2.28201 24 2.83301 24H10.133L11.231 18.355H8.99101C8.94001 18.355 3.83301 18.114 3.83301 18.114L8.47201 17.787L8.39401 17.421L6.41601 17.136L8.29801 16.978L8.17401 16.529L5.09901 16.062C5.09901 16.062 8.44001 15.689 8.49101 15.689H11.723L11.97 14.358C12.259 12.742 12.915 11.551 13.943 10.665C14.976 9.773 16.287 9.333 17.88 9.333C18.523 9.333 18.933 9.484 19.111 9.796C19.229 9.982 19.312 10.312 19.39 10.655C19.464 11.007 19.53 11.326 19.485 11.558C19.428 11.903 19.024 12.023 18.288 12.023H18.035C16.708 12.023 15.901 12.786 15.63 14.333L15.387 15.688H16.927C17.501 15.688 17.708 16.09 17.549 16.994C17.379 17.935 17.01 18.354 16.438 18.354H14.9L13.804 24H21.166C21.717 24 22.166 23.551 22.166 23V4.667C22.166 4.40196 22.0608 4.14775 21.8735 3.96025C21.6861 3.77274 21.4321 3.66727 21.167 3.667ZM20.5 2.333C20.4997 2.24476 20.4646 2.16022 20.4022 2.09782C20.3398 2.03543 20.2552 2.00026 20.167 2H3.83301C3.74477 2.00026 3.66023 2.03543 3.59783 2.09782C3.53544 2.16022 3.50027 2.24476 3.50001 2.333V3H20.5V2.333Z" fill="#131313"/>
</svg>
