<svg width="32" height="32" viewBox="0 0 32 32" fill="none" xmlns="http://www.w3.org/2000/svg">
<path d="M10.5145 2.47876L21.2958 7.19476L29.3332 3.17609V13.3334H26.6665V7.49076L22.6665 9.49076V13.3334H19.9998V9.53876L11.9998 6.04009V20.5108L15.1265 22.0734L13.9332 24.4601L10.7252 22.8548L2.6665 27.6881V7.97343L10.5145 2.47876ZM9.33317 20.5788V6.56009L5.33317 9.36009V22.9774L9.33317 20.5788ZM22.9998 18.0001C23.7248 18.0001 24.4334 18.215 25.0363 18.6177C25.6391 19.0203 26.1091 19.5926 26.3867 20.2623C26.6644 20.9319 26.7374 21.6689 26.5964 22.38C26.4553 23.0911 26.1067 23.7444 25.5945 24.2574L25.5838 24.2681C25.1565 24.693 24.6311 25.006 24.054 25.1795C23.4769 25.353 22.8659 25.3816 22.2752 25.2627C21.6844 25.1439 21.132 24.8812 20.6669 24.498C20.2018 24.1149 19.8383 23.6229 19.6086 23.0658C19.3789 22.5087 19.29 21.9036 19.3499 21.304C19.4097 20.7043 19.6164 20.1287 19.9517 19.628C20.287 19.1272 20.7405 18.7169 21.2722 18.4332C21.8038 18.1495 22.3972 18.0012 22.9998 18.0014M28.3225 25.1014C29.1701 23.7875 29.5016 22.2064 29.2533 20.6627C29.005 19.1189 28.1944 17.7216 26.9776 16.7396C25.7608 15.7577 24.2237 15.2606 22.6624 15.3441C21.101 15.4275 19.6257 16.0856 18.5204 17.1916C17.4152 18.2976 16.7582 19.7734 16.6758 21.3348C16.5935 22.8963 17.0916 24.433 18.0744 25.6491C19.0572 26.8653 20.4551 27.6749 21.9991 27.9221C23.543 28.1693 25.1238 27.8366 26.4372 26.9881L28.6638 29.2201L30.5518 27.3374L28.3225 25.1014Z" fill="#131313"/>
</svg>
