<svg width="32" height="32" viewBox="0 0 32 32" fill="none" xmlns="http://www.w3.org/2000/svg">
<path fill-rule="evenodd" clip-rule="evenodd" d="M25.1354 8.60204C25.2494 8.48816 25.3399 8.35293 25.4016 8.20408C25.4634 8.05524 25.4952 7.89568 25.4953 7.73453C25.4954 7.57338 25.4638 7.41378 25.4022 7.26486C25.3406 7.11593 25.2503 6.9806 25.1364 6.86657C25.0226 6.75255 24.8873 6.66208 24.7385 6.60031C24.5896 6.53855 24.4301 6.50671 24.2689 6.50661C24.1078 6.50651 23.9482 6.53816 23.7993 6.59974C23.6503 6.66132 23.515 6.75162 23.401 6.86551L16.0004 14.266L8.60204 6.86551C8.37176 6.63523 8.05944 6.50586 7.73377 6.50586C7.40811 6.50586 7.09579 6.63523 6.86551 6.86551C6.63523 7.09579 6.50586 7.40811 6.50586 7.73377C6.50586 8.05944 6.63523 8.37176 6.86551 8.60204L14.266 16.0004L6.86551 23.3988C6.75148 23.5129 6.66104 23.6482 6.59933 23.7972C6.53762 23.9462 6.50586 24.1059 6.50586 24.2671C6.50586 24.4284 6.53762 24.588 6.59933 24.737C6.66104 24.886 6.75148 25.0214 6.86551 25.1354C7.09579 25.3657 7.40811 25.495 7.73377 25.495C7.89503 25.495 8.0547 25.4633 8.20368 25.4016C8.35265 25.3398 8.48802 25.2494 8.60204 25.1354L16.0004 17.7348L23.401 25.1354C23.6313 25.3654 23.9435 25.4945 24.2689 25.4943C24.5944 25.4941 24.9064 25.3646 25.1364 25.1343C25.3664 24.904 25.4955 24.5918 25.4953 24.2664C25.4951 23.9409 25.3657 23.6288 25.1354 23.3988L17.7348 16.0004L25.1354 8.60204Z" fill="#131313"/>
</svg>
