<svg width="32" height="32" viewBox="0 0 32 32" fill="none" xmlns="http://www.w3.org/2000/svg">
<path d="M27.4499 15.1095L5.44988 4.10952C5.27745 4.02328 5.08377 3.98873 4.89216 4.01002C4.70055 4.03131 4.51918 4.10754 4.36988 4.22952C4.22731 4.34901 4.12089 4.5059 4.06259 4.68256C4.0043 4.85922 3.99643 5.04864 4.03988 5.22952L6.68988 14.9995H17.9999V16.9995H6.68988L3.99988 26.7395C3.95911 26.8906 3.95435 27.0491 3.98599 27.2023C4.01763 27.3555 4.08478 27.4992 4.18204 27.6218C4.27931 27.7443 4.40398 27.8423 4.54602 27.908C4.68806 27.9736 4.84352 28.0049 4.99988 27.9995C5.15643 27.9986 5.31056 27.9609 5.44988 27.8895L27.4499 16.8895C27.6137 16.8056 27.7512 16.6781 27.8471 16.5211C27.9431 16.364 27.9939 16.1836 27.9939 15.9995C27.9939 15.8155 27.9431 15.635 27.8471 15.478C27.7512 15.3209 27.6137 15.1934 27.4499 15.1095Z" fill="#00A8AA"/>
</svg>
