<svg width="32" height="32" viewBox="0 0 32 32" fill="none" xmlns="http://www.w3.org/2000/svg">
<path d="M24 29.3327C22.8889 29.3327 21.9444 28.9438 21.1667 28.166C20.3889 27.3882 20 26.4438 20 25.3327C20 25.1771 20.0111 25.0158 20.0333 24.8487C20.0556 24.6816 20.0889 24.5318 20.1333 24.3993L10.7333 18.9327C10.3556 19.266 9.93333 19.5273 9.46667 19.7167C9 19.906 8.51111 20.0002 8 19.9993C6.88889 19.9993 5.94444 19.6105 5.16667 18.8327C4.38889 18.0549 4 17.1105 4 15.9993C4 14.8882 4.38889 13.9438 5.16667 13.166C5.94444 12.3882 6.88889 11.9993 8 11.9993C8.51111 11.9993 9 12.094 9.46667 12.2833C9.93333 12.4727 10.3556 12.7336 10.7333 13.066L20.1333 7.59935C20.0889 7.46602 20.0556 7.31624 20.0333 7.15002C20.0111 6.98379 20 6.82246 20 6.66602C20 5.5549 20.3889 4.61046 21.1667 3.83268C21.9444 3.0549 22.8889 2.66602 24 2.66602C25.1111 2.66602 26.0556 3.0549 26.8333 3.83268C27.6111 4.61046 28 5.5549 28 6.66602C28 7.77713 27.6111 8.72157 26.8333 9.49935C26.0556 10.2771 25.1111 10.666 24 10.666C23.4889 10.666 23 10.5718 22.5333 10.3833C22.0667 10.1949 21.6444 9.93357 21.2667 9.59935L11.8667 15.066C11.9111 15.1993 11.9444 15.3496 11.9667 15.5167C11.9889 15.6838 12 15.8447 12 15.9993C12 16.1549 11.9889 16.3162 11.9667 16.4833C11.9444 16.6505 11.9111 16.8002 11.8667 16.9327L21.2667 22.3993C21.6444 22.066 22.0667 21.8051 22.5333 21.6167C23 21.4282 23.4889 21.3336 24 21.3327C25.1111 21.3327 26.0556 21.7216 26.8333 22.4993C27.6111 23.2771 28 24.2216 28 25.3327C28 26.4438 27.6111 27.3882 26.8333 28.166C26.0556 28.9438 25.1111 29.3327 24 29.3327Z" fill="#F5F5F5"/>
</svg>
