<svg width="32" height="32" viewBox="0 0 32 32" fill="none" xmlns="http://www.w3.org/2000/svg">
<path d="M5.96875 6.49983H25.9688C26.2024 6.49972 26.4358 6.51454 26.6675 6.54421C26.5889 5.99281 26.3996 5.46304 26.1107 4.98683C25.8219 4.51061 25.4396 4.09782 24.9869 3.77333C24.5343 3.44885 24.0206 3.2194 23.4768 3.09882C22.9331 2.97823 22.3705 2.96901 21.8231 3.07171L5.375 5.87983H5.35625C4.3238 6.07727 3.40566 6.66141 2.78938 7.51296C3.71787 6.85253 4.82934 6.49836 5.96875 6.49983ZM25.9688 7.99983H5.96875C4.90824 8.00099 3.8915 8.42279 3.1416 9.17268C2.39171 9.92258 1.96991 10.9393 1.96875 11.9998V23.9998C1.96991 25.0603 2.39171 26.0771 3.1416 26.827C3.8915 27.5769 4.90824 27.9987 5.96875 27.9998H25.9688C27.0293 27.9987 28.046 27.5769 28.7959 26.827C29.5458 26.0771 29.9676 25.0603 29.9688 23.9998V11.9998C29.9676 10.9393 29.5458 9.92258 28.7959 9.17268C28.046 8.42279 27.0293 8.00099 25.9688 7.99983ZM23 19.9998C22.6044 19.9998 22.2178 19.8825 21.8889 19.6628C21.56 19.443 21.3036 19.1307 21.1522 18.7652C21.0009 18.3997 20.9613 17.9976 21.0384 17.6097C21.1156 17.2217 21.3061 16.8653 21.5858 16.5856C21.8655 16.3059 22.2219 16.1154 22.6098 16.0383C22.9978 15.9611 23.3999 16.0007 23.7654 16.1521C24.1308 16.3034 24.4432 16.5598 24.6629 16.8887C24.8827 17.2176 25 17.6043 25 17.9998C25 18.5303 24.7893 19.039 24.4142 19.414C24.0391 19.7891 23.5304 19.9998 23 19.9998Z" fill="#00A8AA"/>
<path d="M2 16.2188V10C2 8.64563 2.75 6.375 5.35313 5.88312C7.5625 5.46875 9.75 5.46875 9.75 5.46875C9.75 5.46875 11.1875 6.46875 10 6.46875C8.8125 6.46875 8.84375 8 10 8C11.1562 8 10 9.46875 10 9.46875L5.34375 14.75L2 16.2188Z" fill="#00A8AA"/>
</svg>
