<svg width="32" height="32" viewBox="0 0 32 32" fill="none" xmlns="http://www.w3.org/2000/svg">
<path d="M22.6665 2.66699H9.33317C5.65127 2.66699 2.6665 5.65176 2.6665 9.33366V22.667C2.6665 26.3489 5.65127 29.3337 9.33317 29.3337H22.6665C26.3484 29.3337 29.3332 26.3489 29.3332 22.667V9.33366C29.3332 5.65176 26.3484 2.66699 22.6665 2.66699Z" stroke="#F5F5F5" stroke-width="2" stroke-linecap="round" stroke-linejoin="round"/>
<path d="M23.3331 8.66699H23.3464M21.3331 15.1603C21.4977 16.27 21.3081 17.4033 20.7914 18.399C20.2748 19.3947 19.4573 20.2022 18.4553 20.7066C17.4532 21.2109 16.3177 21.3865 15.2102 21.2082C14.1026 21.03 13.0795 20.5071 12.2862 19.7139C11.493 18.9206 10.9701 17.8975 10.7919 16.7899C10.6136 15.6824 10.7892 14.5469 11.2935 13.5448C11.7979 12.5428 12.6054 11.7253 13.6011 11.2086C14.5968 10.692 15.7301 10.5024 16.8398 10.667C17.9717 10.8348 19.0196 11.3623 19.8287 12.1714C20.6378 12.9805 21.1653 14.0284 21.3331 15.1603Z" stroke="#F5F5F5" stroke-width="2" stroke-linecap="round" stroke-linejoin="round"/>
</svg>
