<svg width="32" height="32" viewBox="0 0 32 32" fill="none" xmlns="http://www.w3.org/2000/svg">
<path fill-rule="evenodd" clip-rule="evenodd" d="M2.6665 15.9998C2.6665 23.3638 8.63584 29.3332 15.9998 29.3332H28.3332C28.5984 29.3332 28.8527 29.2278 29.0403 29.0403C29.2278 28.8527 29.3332 28.5984 29.3332 28.3332C29.3332 28.068 29.2278 27.8136 29.0403 27.6261C28.8527 27.4385 28.5984 27.3332 28.3332 27.3332H23.0265C24.956 26.1377 26.5482 24.4691 27.6519 22.4857C28.7556 20.5022 29.3344 18.2697 29.3332 15.9998C29.3332 8.63584 23.3638 2.6665 15.9998 2.6665C8.63584 2.6665 2.6665 8.63584 2.6665 15.9998ZM15.9998 11.9998C16.5303 11.9998 17.039 11.7891 17.4141 11.4141C17.7891 11.039 17.9998 10.5303 17.9998 9.99984C17.9998 9.4694 17.7891 8.9607 17.4141 8.58562C17.039 8.21055 16.5303 7.99984 15.9998 7.99984C15.4694 7.99984 14.9607 8.21055 14.5856 8.58562C14.2106 8.9607 13.9998 9.4694 13.9998 9.99984C13.9998 10.5303 14.2106 11.039 14.5856 11.4141C14.9607 11.7891 15.4694 11.9998 15.9998 11.9998ZM15.9998 23.9998C16.5303 23.9998 17.039 23.7891 17.4141 23.4141C17.7891 23.039 17.9998 22.5303 17.9998 21.9998C17.9998 21.4694 17.7891 20.9607 17.4141 20.5856C17.039 20.2106 16.5303 19.9998 15.9998 19.9998C15.4694 19.9998 14.9607 20.2106 14.5856 20.5856C14.2106 20.9607 13.9998 21.4694 13.9998 21.9998C13.9998 22.5303 14.2106 23.039 14.5856 23.4141C14.9607 23.7891 15.4694 23.9998 15.9998 23.9998ZM9.99984 13.9998C10.5303 13.9998 11.039 14.2106 11.4141 14.5856C11.7891 14.9607 11.9998 15.4694 11.9998 15.9998C11.9998 16.5303 11.7891 17.039 11.4141 17.4141C11.039 17.7891 10.5303 17.9998 9.99984 17.9998C9.4694 17.9998 8.9607 17.7891 8.58562 17.4141C8.21055 17.039 7.99984 16.5303 7.99984 15.9998C7.99984 15.4694 8.21055 14.9607 8.58562 14.5856C8.9607 14.2106 9.4694 13.9998 9.99984 13.9998ZM23.9998 15.9998C23.9998 15.4694 23.7891 14.9607 23.4141 14.5856C23.039 14.2106 22.5303 13.9998 21.9998 13.9998C21.4694 13.9998 20.9607 14.2106 20.5856 14.5856C20.2106 14.9607 19.9998 15.4694 19.9998 15.9998C19.9998 16.5303 20.2106 17.039 20.5856 17.4141C20.9607 17.7891 21.4694 17.9998 21.9998 17.9998C22.5303 17.9998 23.039 17.7891 23.4141 17.4141C23.7891 17.039 23.9998 16.5303 23.9998 15.9998Z" fill="#00A8AA"/>
</svg>
