<svg width="32" height="32" viewBox="0 0 32 32" fill="none" xmlns="http://www.w3.org/2000/svg">
<path d="M24 7.99992H19.2133L22.28 4.94659C22.4043 4.82227 22.5029 4.67468 22.5702 4.51225C22.6375 4.34982 22.6721 4.17573 22.6721 3.99992C22.6721 3.82411 22.6375 3.65002 22.5702 3.48759C22.5029 3.32516 22.4043 3.17757 22.28 3.05325C22.1557 2.92894 22.0081 2.83032 21.8457 2.76304C21.6832 2.69576 21.5091 2.66113 21.3333 2.66113C20.9783 2.66113 20.6377 2.80218 20.3867 3.05325L16 7.45326L11.6133 3.05325C11.489 2.92894 11.3414 2.83032 11.179 2.76304C11.0166 2.69576 10.8425 2.66113 10.6667 2.66113C10.4909 2.66113 10.3168 2.69576 10.1543 2.76304C9.99191 2.83032 9.84432 2.92894 9.72 3.05325C9.46893 3.30433 9.32788 3.64485 9.32788 3.99992C9.32788 4.17573 9.36251 4.34982 9.42979 4.51225C9.49707 4.67468 9.59568 4.82227 9.72 4.94659L12.7867 7.99992H8C6.93913 7.99992 5.92172 8.42135 5.17157 9.17149C4.42143 9.92164 4 10.9391 4 11.9999V25.3333C4 26.3941 4.42143 27.4115 5.17157 28.1617C5.92172 28.9118 6.93913 29.3333 8 29.3333H24C25.0609 29.3333 26.0783 28.9118 26.8284 28.1617C27.5786 27.4115 28 26.3941 28 25.3333V11.9999C28 10.9391 27.5786 9.92164 26.8284 9.17149C26.0783 8.42135 25.0609 7.99992 24 7.99992ZM25.3333 25.3333C25.3333 25.6869 25.1929 26.026 24.9428 26.2761C24.6928 26.5261 24.3536 26.6666 24 26.6666H8C7.64638 26.6666 7.30724 26.5261 7.05719 26.2761C6.80714 26.026 6.66667 25.6869 6.66667 25.3333V15.9999C6.66667 15.6463 6.80714 15.3072 7.05719 15.0571C7.30724 14.8071 7.64638 14.6666 8 14.6666H24C24.3536 14.6666 24.6928 14.8071 24.9428 15.0571C25.1929 15.3072 25.3333 15.6463 25.3333 15.9999V25.3333Z" fill="#00A8AA"/>
</svg>
