<svg width="32" height="32" viewBox="0 0 32 32" fill="none" xmlns="http://www.w3.org/2000/svg">
<path d="M18 2.66655C18 3.25855 17.7427 3.79055 17.3333 4.15722V6.66655H24C25.0609 6.66655 26.0783 7.08798 26.8284 7.83812C27.5786 8.58827 28 9.60568 28 10.6665V23.9999C28 25.0607 27.5786 26.0782 26.8284 26.8283C26.0783 27.5785 25.0609 27.9999 24 27.9999H8C6.93913 27.9999 5.92172 27.5785 5.17157 26.8283C4.42143 26.0782 4 25.0607 4 23.9999V10.6665C4 9.60568 4.42143 8.58827 5.17157 7.83812C5.92172 7.08798 6.93913 6.66655 8 6.66655H14.6667V4.15722C14.418 3.93481 14.2289 3.65373 14.1167 3.33957C14.0044 3.02542 13.9725 2.68817 14.0239 2.35853C14.0752 2.02889 14.2082 1.71735 14.4108 1.45225C14.6133 1.18716 14.879 0.976947 15.1835 0.840753C15.4881 0.704559 15.8219 0.646712 16.1545 0.672479C16.4871 0.698246 16.808 0.806808 17.0879 0.988281C17.3679 1.16975 17.598 1.41837 17.7573 1.71149C17.9166 2.00462 18 2.33294 18 2.66655ZM0 13.3332H2.66667V21.3332H0V13.3332ZM32 13.3332H29.3333V21.3332H32V13.3332ZM12 19.3332C12.5304 19.3332 13.0391 19.1225 13.4142 18.7474C13.7893 18.3724 14 17.8636 14 17.3332C14 16.8028 13.7893 16.2941 13.4142 15.919C13.0391 15.5439 12.5304 15.3332 12 15.3332C11.4696 15.3332 10.9609 15.5439 10.5858 15.919C10.2107 16.2941 10 16.8028 10 17.3332C10 17.8636 10.2107 18.3724 10.5858 18.7474C10.9609 19.1225 11.4696 19.3332 12 19.3332ZM22 17.3332C22 16.8028 21.7893 16.2941 21.4142 15.919C21.0391 15.5439 20.5304 15.3332 20 15.3332C19.4696 15.3332 18.9609 15.5439 18.5858 15.919C18.2107 16.2941 18 16.8028 18 17.3332C18 17.8636 18.2107 18.3724 18.5858 18.7474C18.9609 19.1225 19.4696 19.3332 20 19.3332C20.5304 19.3332 21.0391 19.1225 21.4142 18.7474C21.7893 18.3724 22 17.8636 22 17.3332Z" fill="#00A8AA"/>
</svg>
