<svg width="32" height="32" viewBox="0 0 32 32" fill="none" xmlns="http://www.w3.org/2000/svg">
<g clip-path="url(#clip0_578_8024)">
<path d="M12 1C12 0.734784 12.1054 0.48043 12.2929 0.292893C12.4804 0.105357 12.7348 0 13 0L19 0C19.2652 0 19.5196 0.105357 19.7071 0.292893C19.8946 0.48043 20 0.734784 20 1V6H23C23.7956 6 24.5587 6.31607 25.1213 6.87868C25.6839 7.44129 26 8.20435 26 9V27C26.0002 27.622 25.807 28.2286 25.4473 28.736C25.0875 29.2433 24.579 29.6263 23.992 29.832C24.0161 30.1015 23.9853 30.3731 23.9014 30.6304C23.8176 30.8877 23.6823 31.1252 23.504 31.3287C23.3256 31.5322 23.1078 31.6974 22.8637 31.8143C22.6197 31.9311 22.3544 31.9973 22.0841 32.0086C21.8137 32.02 21.5438 31.9764 21.2908 31.8805C21.0378 31.7845 20.8069 31.6382 20.6121 31.4504C20.4172 31.2627 20.2625 31.0373 20.1573 30.788C20.0521 30.5387 19.9986 30.2706 20 30H12C11.9981 30.2686 11.9422 30.534 11.8356 30.7804C11.7289 31.0269 11.5737 31.2494 11.3792 31.4346C11.1847 31.6198 10.9549 31.7639 10.7036 31.8584C10.4522 31.9528 10.1843 31.9957 9.916 31.9844C9.64768 31.9731 9.38438 31.9079 9.1418 31.7927C8.89923 31.6774 8.68235 31.5145 8.5041 31.3136C8.32585 31.1128 8.18988 30.8781 8.10431 30.6235C8.01873 30.3689 7.9853 30.0998 8.006 29.832C7.4194 29.626 6.91129 29.2428 6.55193 28.7355C6.19256 28.2282 5.9997 27.6217 6 27V9C6 8.20435 6.31607 7.44129 6.87868 6.87868C7.44129 6.31607 8.20435 6 9 6H12V1ZM18 2H14V6H18V2ZM12 11C12 10.7348 11.8946 10.4804 11.7071 10.2929C11.5196 10.1054 11.2652 10 11 10C10.7348 10 10.4804 10.1054 10.2929 10.2929C10.1054 10.4804 10 10.7348 10 11V25C10 25.2652 10.1054 25.5196 10.2929 25.7071C10.4804 25.8946 10.7348 26 11 26C11.2652 26 11.5196 25.8946 11.7071 25.7071C11.8946 25.5196 12 25.2652 12 25V11ZM17 11C17 10.7348 16.8946 10.4804 16.7071 10.2929C16.5196 10.1054 16.2652 10 16 10C15.7348 10 15.4804 10.1054 15.2929 10.2929C15.1054 10.4804 15 10.7348 15 11V25C15 25.2652 15.1054 25.5196 15.2929 25.7071C15.4804 25.8946 15.7348 26 16 26C16.2652 26 16.5196 25.8946 16.7071 25.7071C16.8946 25.5196 17 25.2652 17 25V11ZM22 11C22 10.7348 21.8946 10.4804 21.7071 10.2929C21.5196 10.1054 21.2652 10 21 10C20.7348 10 20.4804 10.1054 20.2929 10.2929C20.1054 10.4804 20 10.7348 20 11V25C20 25.2652 20.1054 25.5196 20.2929 25.7071C20.4804 25.8946 20.7348 26 21 26C21.2652 26 21.5196 25.8946 21.7071 25.7071C21.8946 25.5196 22 25.2652 22 25V11Z" fill="#00A8AA"/>
</g>
<defs>
<clipPath id="clip0_578_8024">
<rect width="32" height="32" fill="white"/>
</clipPath>
</defs>
</svg>
