<svg width="24" height="24" viewBox="0 0 24 24" fill="none" xmlns="http://www.w3.org/2000/svg">
<path d="M20.853 9.72817L19.16 13.3092L17.46 9.72617H16.277L16.58 10.3242C16.18 9.69417 15.389 9.53417 14.666 9.53417C12.551 9.53417 12.416 10.7542 12.416 10.9482H13.468C13.468 10.9482 13.523 10.2362 14.593 10.2362C15.288 10.2362 15.826 10.5712 15.826 11.2152V11.4452H14.593C13.225 11.4452 12.397 11.7962 12.16 12.5082C12.184 12.3502 12.197 12.1862 12.197 12.0172C12.197 10.6482 11.321 9.54817 9.841 9.54817C8.455 9.54817 8.024 10.3362 8.024 10.3362V7.70117H7.007V11.7122C6.992 10.8412 6.455 9.53517 4.577 9.53517C3.17 9.53617 2 10.1632 2 12.0582C2 13.5582 2.788 14.5032 4.613 14.5032C6.761 14.5032 6.899 13.0132 6.899 13.0132H5.86C5.86 13.0132 5.636 13.8152 4.55 13.8152C3.666 13.8152 3.03 13.1862 3.03 12.3052H7.009V13.5512C7.009 13.8832 6.986 14.3502 6.986 14.3502H7.979C7.979 14.3502 8.015 14.0152 8.015 13.7092C8.015 13.7092 8.505 14.5172 9.839 14.5172C10.977 14.5172 11.819 13.8442 12.098 12.8072C12.093 12.8612 12.089 12.9172 12.089 12.9752C12.089 13.9822 12.889 14.5302 13.971 14.5302C15.445 14.5302 15.92 13.6732 15.92 13.6732C15.92 14.0142 15.945 14.3502 15.945 14.3502H16.88C16.88 14.3502 16.844 13.9332 16.844 13.6672V11.3652C16.844 11.0562 16.796 10.7992 16.709 10.5832L18.606 14.3292L17.714 16.1082H18.839L21.927 9.72817H20.853ZM3.053 11.5992C3.053 10.7352 3.802 10.2432 4.54 10.2432C5.382 10.2432 5.956 10.7862 5.956 11.5992H3.053ZM9.59 13.7942C8.572 13.7942 8.023 12.9572 8.023 12.0302C8.023 11.1662 8.515 10.2752 9.583 10.2752C10.537 10.2752 11.143 11.0202 11.143 12.0202C11.143 13.0922 10.443 13.7942 9.59 13.7942ZM15.825 12.4402C15.825 12.8402 15.591 13.8302 14.215 13.8302C13.463 13.8302 13.139 13.4342 13.139 12.9752C13.139 12.1402 14.227 12.1352 15.825 12.1352V12.4402Z" fill="#131313"/>
</svg>
