<svg width="32" height="32" viewBox="0 0 32 32" fill="none" xmlns="http://www.w3.org/2000/svg">
<path d="M16.3746 8.72754C20.6004 8.72754 24.0243 11.9655 24.1735 16C24.0243 20.0346 20.6004 23.2725 16.3746 23.2725C12.1488 23.2725 8.72404 20.0345 8.57727 16.0001C8.72453 11.9656 12.1493 8.72754 16.3746 8.72754Z" fill="#00A8AA" stroke="#F5F5F5" stroke-width="0.375"/>
<path d="M16.375 5C10.3 5 5.37451 9.925 5.37451 16C5.37451 22.0745 10.3005 27 16.375 27C22.4495 27 27.375 22.0745 27.375 16C27.375 9.925 22.4495 5 16.375 5ZM16.3745 24C11.956 24 8.37401 20.5395 8.37401 16.2695C8.37401 16.1785 8.38651 16.09 8.38951 16C8.38651 15.91 8.37401 15.821 8.37401 15.7305C8.37401 11.4605 11.9565 8 16.3745 8C20.793 8 24.3745 11.4605 24.3745 15.7305C24.3745 15.821 24.364 15.91 24.3615 16C24.3645 16.09 24.3745 16.1785 24.3745 16.2695C24.374 20.5395 20.793 24 16.3745 24Z" fill="#00A8AA"/>
<path d="M1.74071 3.71055C1.86071 3.24005 2.09821 3.70505 2.09821 3.70505C2.09821 3.70505 2.18121 8.57505 2.72121 8.62805C3.26121 8.68105 2.84521 3.61705 3.48421 3.52005C4.07821 3.42555 3.73921 8.70855 4.28021 8.65505C4.81921 8.59805 4.91021 3.73005 4.91021 3.73005C4.91021 3.73005 5.15021 3.26555 5.26871 3.73255C6.73271 9.48755 5.54821 11.84 5.54821 11.84C5.54821 11.84 5.34821 12.3345 4.87321 12.337C4.82871 12.3345 4.86221 26.005 4.85921 27.843C4.86021 28.7365 2.10921 28.709 2.11071 27.8195C2.11271 25.9815 2.16621 12.3125 2.12321 12.3135C1.64671 12.3135 1.44721 11.8195 1.44721 11.8195C1.44721 11.8195 0.267214 9.46855 1.74071 3.71055ZM27.8102 3.50005C28.4292 3.49855 30.9972 5.35005 31.0002 12.231C31.0032 14.4315 29.8027 14.431 29.8047 15.8075C29.8067 17.1815 29.8142 28.1105 29.8142 28.1105C29.8142 28.1105 28.4972 29.014 27.5182 28.0685L27.5002 3.69555C27.5012 3.69605 27.4977 3.49955 27.8102 3.50005Z" fill="#00A8AA"/>
</svg>
