<svg width="32" height="32" viewBox="0 0 32 32" fill="none" xmlns="http://www.w3.org/2000/svg">
<path fill-rule="evenodd" clip-rule="evenodd" d="M11.0001 9.35067V8C11.0001 6.67392 11.5269 5.40215 12.4646 4.46447C13.4023 3.52678 14.6741 3 16.0001 3C17.3262 3 18.598 3.52678 19.5357 4.46447C20.4734 5.40215 21.0001 6.67392 21.0001 8V9.35067C22.7295 9.4 23.7828 9.57733 24.5895 10.24C25.6961 11.1467 26.0028 12.6853 26.6201 15.764L27.4201 19.764C28.3055 24.1907 28.7481 26.404 27.5481 27.8693C26.3468 29.3333 24.0895 29.3333 19.5735 29.3333H12.4268C7.91213 29.3333 5.65347 29.3333 4.45347 27.8693C3.25347 26.4053 3.69614 24.192 4.58147 19.764L5.38147 15.764C5.99747 12.6853 6.30547 11.1467 7.4108 10.24C8.2188 9.57867 9.27214 9.4 11.0015 9.35067M13.0001 8C13.0001 7.20435 13.3162 6.44129 13.8788 5.87868C14.4414 5.31607 15.2045 5 16.0001 5C16.7958 5 17.5588 5.31607 18.1215 5.87868C18.6841 6.44129 19.0001 7.20435 19.0001 8V9.33333H13.0001V8ZM20.0001 14.6667C20.3538 14.6667 20.6929 14.5262 20.9429 14.2761C21.193 14.0261 21.3335 13.687 21.3335 13.3333C21.3335 12.9797 21.193 12.6406 20.9429 12.3905C20.6929 12.1405 20.3538 12 20.0001 12C19.6465 12 19.3074 12.1405 19.0573 12.3905C18.8073 12.6406 18.6668 12.9797 18.6668 13.3333C18.6668 13.687 18.8073 14.0261 19.0573 14.2761C19.3074 14.5262 19.6465 14.6667 20.0001 14.6667ZM13.3335 13.3333C13.3335 13.687 13.193 14.0261 12.9429 14.2761C12.6929 14.5262 12.3538 14.6667 12.0001 14.6667C11.6465 14.6667 11.3074 14.5262 11.0573 14.2761C10.8073 14.0261 10.6668 13.687 10.6668 13.3333C10.6668 12.9797 10.8073 12.6406 11.0573 12.3905C11.3074 12.1405 11.6465 12 12.0001 12C12.3538 12 12.6929 12.1405 12.9429 12.3905C13.193 12.6406 13.3335 12.9797 13.3335 13.3333Z" fill="#131313"/>
</svg>
